<svg width="25" height="18" viewBox="0 0 25 18" fill="none" xmlns="http://www.w3.org/2000/svg">
<path d="M18.3502 0C19.6443 0 20.6378 0.948375 21.3737 1.96875L21.623 2.32987L21.8511 2.68987C21.9237 2.80687 21.9927 2.92387 22.0594 3.03637C22.9803 4.61925 23.7818 6.68588 24.3118 8.72775C24.8384 10.7539 25.1297 12.87 24.9437 14.5339C24.7565 16.2045 23.8613 18 21.8605 18C20.0656 18 18.6509 17.0775 17.5019 16.1764L16.2031 15.129C15.1231 14.2785 13.9413 13.5 12.4998 13.5C11.0582 13.5 9.87526 14.2785 8.79761 15.129L7.49881 16.1753C6.34744 17.0775 4.9328 18 3.13905 18C1.13702 18 0.241906 16.2045 0.0558614 14.5339C-0.129013 12.8689 0.161169 10.7539 0.68771 8.72663C1.21776 6.68587 2.01927 4.62037 2.94013 3.03637L3.14841 2.68875L3.37658 2.32987L3.62581 1.96875C4.36179 0.948375 5.3552 0 6.64932 0C7.24607 0 7.8393 0.1395 8.42201 0.30375L9.11587 0.5085C9.23054 0.54225 9.34404 0.574875 9.45754 0.60525C10.4697 0.88425 11.5052 1.125 12.4998 1.125C13.4943 1.125 14.5299 0.88425 15.542 0.60525L16.5775 0.304875C17.1602 0.1395 17.7535 0 18.3502 0ZM8.40446 4.5C7.62864 4.5 6.8846 4.79632 6.33601 5.32376C5.78742 5.85121 5.47923 6.56658 5.47923 7.3125C5.47923 8.05842 5.78742 8.77379 6.33601 9.30124C6.8846 9.82868 7.62864 10.125 8.40446 10.125C9.18027 10.125 9.92432 9.82868 10.4729 9.30124C11.0215 8.77379 11.3297 8.05842 11.3297 7.3125C11.3297 6.56658 11.0215 5.85121 10.4729 5.32376C9.92432 4.79632 9.18027 4.5 8.40446 4.5ZM16.5951 4.5C16.2848 4.5 15.9871 4.61853 15.7677 4.8295C15.5483 5.04048 15.425 5.32663 15.425 5.625V6.1875H14.84C14.5296 6.1875 14.232 6.30603 14.0126 6.517C13.7931 6.72798 13.6699 7.01413 13.6699 7.3125C13.6699 7.61087 13.7931 7.89702 14.0126 8.108C14.232 8.31897 14.5296 8.4375 14.84 8.4375H15.425V9C15.425 9.29837 15.5483 9.58452 15.7677 9.7955C15.9871 10.0065 16.2848 10.125 16.5951 10.125C16.9054 10.125 17.203 10.0065 17.4225 9.7955C17.6419 9.58452 17.7652 9.29837 17.7652 9V8.4375H18.3502C18.6606 8.4375 18.9582 8.31897 19.1776 8.108C19.397 7.89702 19.5203 7.61087 19.5203 7.3125C19.5203 7.01413 19.397 6.72798 19.1776 6.517C18.9582 6.30603 18.6606 6.1875 18.3502 6.1875H17.7652V5.625C17.7652 5.32663 17.6419 5.04048 17.4225 4.8295C17.203 4.61853 16.9054 4.5 16.5951 4.5ZM8.40446 6.75C8.55962 6.75 8.70843 6.80926 8.81815 6.91475C8.92786 7.02024 8.9895 7.16332 8.9895 7.3125C8.9895 7.46168 8.92786 7.60476 8.81815 7.71025C8.70843 7.81574 8.55962 7.875 8.40446 7.875C8.24929 7.875 8.10048 7.81574 7.99077 7.71025C7.88105 7.60476 7.81941 7.46168 7.81941 7.3125C7.81941 7.16332 7.88105 7.02024 7.99077 6.91475C8.10048 6.80926 8.24929 6.75 8.40446 6.75Z" fill="white"/>
</svg>
