<svg width="13" height="13" viewBox="0 0 13 13" fill="none" xmlns="http://www.w3.org/2000/svg">
<path d="M2.25095 1.58145C3.43041 0.559435 4.93934 -0.00217091 6.5 6.30672e-06C10.0899 6.30672e-06 13 2.91005 13 6.5C13 7.8884 12.5645 9.1754 11.8235 10.231L9.75 6.5H11.7C11.7001 5.48056 11.4005 4.48357 10.8385 3.63302C10.2766 2.78246 9.47696 2.11586 8.53917 1.71609C7.60138 1.31631 6.56676 1.20101 5.56397 1.38452C4.56118 1.56802 3.63445 2.04224 2.899 2.7482L2.25095 1.58145ZM10.7491 11.4185C9.56959 12.4406 8.06066 13.0022 6.5 13C2.91005 13 0 10.0899 0 6.5C0 5.1116 0.4355 3.8246 1.1765 2.769L3.25 6.5H1.3C1.29992 7.51944 1.59949 8.51643 2.16147 9.36698C2.72345 10.2175 3.52304 10.8841 4.46083 11.2839C5.39862 11.6837 6.43324 11.799 7.43603 11.6155C8.43882 11.432 9.36555 10.9578 10.101 10.2518L10.7491 11.4185Z" fill="#A0A0A0"/>
</svg>
