<svg width="26" height="26" viewBox="0 0 26 26" fill="none" xmlns="http://www.w3.org/2000/svg">
    <defs>
        <linearGradient id="paint0_linear_104_3908" x1="0.918689" y1="24.9558" x2="24.8847"
            y2="24.9558" gradientUnits="userSpaceOnUse">
            <stop stop-color="#6129FF" />
            <stop offset="1" stop-color="#D96CFF" />
        </linearGradient>
    </defs>
    <path
        d="M13 0C5.824 0 0 5.824 0 13C0 20.176 5.824 26 13 26C20.176 26 26 20.176 26 13C26 5.824 20.176 0 13 0Z"
        fill="url(#paint0_linear_104_3908)" />
    <path fill-rule="evenodd" clip-rule="evenodd"
        d="M13.0008 4.98334C10.5829 4.98334 8.54828 6.78205 8.13546 9.11152C7.63418 9.19998 7.25085 9.64229 7.28034 10.2025C7.28034 10.7628 7.69316 11.2346 8.25341 11.2936H8.34187C8.51879 11.2936 8.66623 11.2641 8.78418 11.2051C8.66623 10.8218 8.60725 10.409 8.60725 9.99614C8.60725 9.73075 8.63674 9.43588 8.69571 9.1705C9.07905 7.1064 10.8483 5.54359 13.0008 5.54359C15.1534 5.54359 16.9521 7.1064 17.3354 9.1705C17.3944 9.43588 17.4239 9.70126 17.4239 9.99614C17.4239 10.409 17.3649 10.8218 17.247 11.2051C17.3944 11.2641 17.5418 11.2936 17.6893 11.2936H17.7777C18.3085 11.2346 18.7508 10.7628 18.7508 10.2025C18.7508 9.64229 18.3675 9.19998 17.8662 9.11152C17.4534 6.75256 15.4188 4.98334 13.0008 4.98334ZM13.0009 13.0628C14.7996 13.0628 16.2444 11.6179 16.2444 9.81923C16.2444 8.02052 14.7996 6.54617 13.0009 6.57566C11.2022 6.57566 9.75729 8.02052 9.75729 9.81923C9.75729 11.6179 11.2022 13.0628 13.0009 13.0628ZM7.57522 20.6115C6.27779 20.6115 5.3342 19.3436 5.77651 18.1346C6.60214 15.7461 8.60726 13.8884 11.0842 13.2397C11.6739 13.5346 12.3226 13.7115 13.0008 13.7115C13.679 13.7115 14.3572 13.5346 14.9175 13.2397C17.3944 13.8884 19.3995 15.7461 20.2252 18.1346C20.638 19.3436 19.6944 20.6115 18.4264 20.6115H7.57522ZM12.9714 11.5295C13.3252 11.5295 13.6791 11.4115 13.915 11.1461C14.0034 11.0577 14.0919 11.0577 14.1803 11.1167C14.2393 11.1756 14.2393 11.2936 14.1803 11.3525C13.8855 11.6769 13.4432 11.8538 13.0009 11.8538C12.5585 11.8538 12.1457 11.7064 11.8214 11.382C11.7624 11.3231 11.7624 11.2051 11.8214 11.1461C11.8803 11.0872 11.9983 11.0872 12.0573 11.1461C12.2932 11.382 12.6175 11.5295 12.9714 11.5295Z"
        fill="white" />
</svg>
